<?xml version="1.0" encoding="UTF-8" standalone="no"?>
<svg
   xmlns:dc="http://purl.org/dc/elements/1.1/"
   xmlns:cc="http://creativecommons.org/ns#"
   xmlns:rdf="http://www.w3.org/1999/02/22-rdf-syntax-ns#"
   xmlns:svg="http://www.w3.org/2000/svg"
   xmlns="http://www.w3.org/2000/svg"
   xmlns:sodipodi="http://sodipodi.sourceforge.net/DTD/sodipodi-0.dtd"
   xmlns:inkscape="http://www.inkscape.org/namespaces/inkscape"
   version="1.1"
   id="svg2"
   xml:space="preserve"
   width="800"
   height="533.33331"
   viewBox="0 0 800 533.33331"
   sodipodi:docname="AlmightyTech.ai"><metadata
     id="metadata8"><rdf:RDF><cc:Work
         rdf:about=""><dc:format>image/svg+xml</dc:format><dc:type
           rdf:resource="http://purl.org/dc/dcmitype/StillImage" /></cc:Work></rdf:RDF></metadata><defs
     id="defs6"><clipPath
       clipPathUnits="userSpaceOnUse"
       id="clipPath34"><path
         d="M 0,400 H 600 V 0 H 0 Z"
         id="path32" /></clipPath><linearGradient
       x1="0"
       y1="0"
       x2="1"
       y2="0"
       gradientUnits="userSpaceOnUse"
       gradientTransform="matrix(-95.298088,31.016073,31.016073,95.298088,351.78973,78.112526)"
       spreadMethod="pad"
       id="linearGradient74"><stop
         style="stop-opacity:1;stop-color:#1447d4"
         offset="0"
         id="stop64" /><stop
         style="stop-opacity:1;stop-color:#1447d4"
         offset="0.0172253"
         id="stop66" /><stop
         style="stop-opacity:1;stop-color:#006fff"
         offset="0.241105"
         id="stop68" /><stop
         style="stop-opacity:1;stop-color:#006fff"
         offset="0.29532286"
         id="stop70" /><stop
         style="stop-opacity:1;stop-color:#00e7ff"
         offset="1"
         id="stop72" /></linearGradient><linearGradient
       x1="0"
       y1="0"
       x2="1"
       y2="0"
       gradientUnits="userSpaceOnUse"
       gradientTransform="matrix(-95.298088,31.016073,31.016073,95.298088,354.23404,85.622787)"
       spreadMethod="pad"
       id="linearGradient100"><stop
         style="stop-opacity:1;stop-color:#1447d4"
         offset="0"
         id="stop90" /><stop
         style="stop-opacity:1;stop-color:#1447d4"
         offset="0.0172253"
         id="stop92" /><stop
         style="stop-opacity:1;stop-color:#006fff"
         offset="0.241105"
         id="stop94" /><stop
         style="stop-opacity:1;stop-color:#006fff"
         offset="0.29532286"
         id="stop96" /><stop
         style="stop-opacity:1;stop-color:#00e7ff"
         offset="1"
         id="stop98" /></linearGradient><linearGradient
       x1="0"
       y1="0"
       x2="1"
       y2="0"
       gradientUnits="userSpaceOnUse"
       gradientTransform="matrix(-95.298088,31.016073,31.016073,95.298088,357.13034,94.521744)"
       spreadMethod="pad"
       id="linearGradient126"><stop
         style="stop-opacity:1;stop-color:#1447d4"
         offset="0"
         id="stop116" /><stop
         style="stop-opacity:1;stop-color:#1447d4"
         offset="0.0172253"
         id="stop118" /><stop
         style="stop-opacity:1;stop-color:#006fff"
         offset="0.241105"
         id="stop120" /><stop
         style="stop-opacity:1;stop-color:#006fff"
         offset="0.29532286"
         id="stop122" /><stop
         style="stop-opacity:1;stop-color:#00e7ff"
         offset="1"
         id="stop124" /></linearGradient><linearGradient
       x1="0"
       y1="0"
       x2="1"
       y2="0"
       gradientUnits="userSpaceOnUse"
       gradientTransform="matrix(-95.298088,31.016073,31.016073,95.298088,360.19611,103.94147)"
       spreadMethod="pad"
       id="linearGradient152"><stop
         style="stop-opacity:1;stop-color:#1447d4"
         offset="0"
         id="stop142" /><stop
         style="stop-opacity:1;stop-color:#1447d4"
         offset="0.0172253"
         id="stop144" /><stop
         style="stop-opacity:1;stop-color:#006fff"
         offset="0.241105"
         id="stop146" /><stop
         style="stop-opacity:1;stop-color:#006fff"
         offset="0.29532286"
         id="stop148" /><stop
         style="stop-opacity:1;stop-color:#00e7ff"
         offset="1"
         id="stop150" /></linearGradient><linearGradient
       x1="0"
       y1="0"
       x2="1"
       y2="0"
       gradientUnits="userSpaceOnUse"
       gradientTransform="matrix(-69.963867,60.141357,60.141357,69.963867,340.31586,205.08359)"
       spreadMethod="pad"
       id="linearGradient178"><stop
         style="stop-opacity:1;stop-color:#1447d4"
         offset="0"
         id="stop168" /><stop
         style="stop-opacity:1;stop-color:#1447d4"
         offset="0.0172253"
         id="stop170" /><stop
         style="stop-opacity:1;stop-color:#006fff"
         offset="0.241105"
         id="stop172" /><stop
         style="stop-opacity:1;stop-color:#006fff"
         offset="0.29532286"
         id="stop174" /><stop
         style="stop-opacity:1;stop-color:#00e7ff"
         offset="1"
         id="stop176" /></linearGradient><clipPath
       clipPathUnits="userSpaceOnUse"
       id="clipPath188"><path
         d="M 0,400 H 600 V 0 H 0 Z"
         id="path186" /></clipPath><linearGradient
       x1="0"
       y1="0"
       x2="1"
       y2="0"
       gradientUnits="userSpaceOnUse"
       gradientTransform="matrix(-87.6994,-75.3869,75.3869,-87.6994,-13.2653,437.6932)"
       spreadMethod="pad"
       id="linearGradient202"><stop
         style="stop-opacity:1;stop-color:#1447d4"
         offset="0"
         id="stop192" /><stop
         style="stop-opacity:1;stop-color:#1447d4"
         offset="0.0172253"
         id="stop194" /><stop
         style="stop-opacity:1;stop-color:#006fff"
         offset="0.241105"
         id="stop196" /><stop
         style="stop-opacity:1;stop-color:#006fff"
         offset="0.29532286"
         id="stop198" /><stop
         style="stop-opacity:1;stop-color:#00e7ff"
         offset="1"
         id="stop200" /></linearGradient></defs><sodipodi:namedview
     pagecolor="#ffffff"
     bordercolor="#666666"
     borderopacity="1"
     objecttolerance="10"
     gridtolerance="10"
     guidetolerance="10"
     inkscape:pageopacity="0"
     inkscape:pageshadow="2"
     inkscape:window-width="640"
     inkscape:window-height="480"
     id="namedview4" /><g
     id="g10"
     inkscape:groupmode="layer"
     inkscape:label="AlmightyTech"
     transform="matrix(1.3333333,0,0,-1.3333333,0,533.33333)"><g
       id="g12"
       transform="translate(191.3475,159.8798)"><path
         d="M 0,0 -5.82,-16.492 H 5.769 Z M 7.403,-21.239 H -7.454 l -2.553,-7.251 h -6.076 L -3.37,7.047 H 3.37 L 16.084,-28.49 H 9.957 Z"
         style="fill:#252441;fill-opacity:1;fill-rule:nonzero;stroke:none"
         id="path14" /></g><g
       id="g16"
       transform="translate(218.7743,166.8761)"><path
         d="m 0,0 v -30.79 h 12 v -4.696 H -5.82 V 0 Z"
         style="fill:#252441;fill-opacity:1;fill-rule:nonzero;stroke:none"
         id="path18" /></g><g
       id="g20"
       transform="translate(235.6287,166.8761)"><path
         d="M 0,0 H 6.281 L 18.739,-27.827 31.145,0 h 6.231 v -35.486 h -5.823 v 24.302 L 20.73,-35.486 H 16.696 L 5.82,-11.184 V -35.486 H 0 Z"
         style="fill:#252441;fill-opacity:1;fill-rule:nonzero;stroke:none"
         id="path22" /></g><g
       id="g24"
       transform="translate(282.2971,131.3901)"><path
         d="m 0,0 h -1.625 v 35.486 h 5.82 V 0 Z"
         style="fill:#252441;fill-opacity:1;fill-rule:nonzero;stroke:none"
         id="path26" /></g><g
       id="g28"><g
         id="g30"
         clip-path="url(#clipPath34)"><g
           id="g36"
           transform="translate(326.8329,156.6626)"><path
             d="m 0,0 h -6.996 c -1.89,3.575 -5.258,5.361 -9.496,5.361 -7.047,0 -12.151,-5.003 -12.151,-12.814 0,-7.812 5.104,-12.866 12.151,-12.866 6.432,0 10.466,3.88 11.335,9.853 H -18.483 V -5.82 H 1.071 v -4.543 C 0,-18.583 -6.944,-25.58 -16.492,-25.58 c -10.007,0 -18.125,7.455 -18.125,18.127 0,10.62 8.118,18.125 18.125,18.125 C -9.09,10.672 -2.706,6.946 0,0"
             style="fill:#252441;fill-opacity:1;fill-rule:nonzero;stroke:none"
             id="path38" /></g><g
           id="g40"
           transform="translate(356.1481,146.9122)"><path
             d="m 0,0 h -16.696 v -15.522 h -5.82 v 35.486 h 5.82 V 4.747 H 0 V 19.964 H 5.822 V -15.522 H 0 Z"
             style="fill:#252441;fill-opacity:1;fill-rule:nonzero;stroke:none"
             id="path42" /></g><g
           id="g44"
           transform="translate(367.7995,166.8761)"><path
             d="M 0,0 H 24.761 V -4.749 H 15.316 V -35.486 H 9.496 V -4.749 L 0,-4.749 Z"
             style="fill:#252441;fill-opacity:1;fill-rule:nonzero;stroke:none"
             id="path46" /></g><g
           id="g48"
           transform="translate(395.3765,166.8761)"><path
             d="M 0,0 H 6.485 L 14.706,-17.412 22.924,0 h 6.435 L 17.616,-22.619 v -12.867 h -5.82 v 12.867 z"
             style="fill:#252441;fill-opacity:1;fill-rule:nonzero;stroke:none"
             id="path50" /></g></g></g><g
       id="g52"><g
         id="g54"><g
           id="g60"><g
             id="g62"><path
               d="m 248.726,117.402 v -2.242 h 4.485 v -14.516 h 2.75 v 14.516 h 4.459 v 2.242 z"
               style="fill:url(#linearGradient74);stroke:none"
               id="path76" /></g></g></g></g><g
       id="g78"><g
         id="g80"><g
           id="g86"><g
             id="g88"><path
               d="m 277.667,117.428 v -16.784 h 9.26 v 2.243 h -6.512 v 5.136 h 5.788 v 2.243 h -5.788 v 4.919 h 6.512 v 2.243 z"
               style="fill:url(#linearGradient100);stroke:none"
               id="path102" /></g></g></g></g><g
       id="g104"><g
         id="g106"><g
           id="g112"><g
             id="g114"><path
               d="m 303.859,109.059 c 0,-5.04 3.835,-8.56 8.561,-8.56 v 0 c 3.496,0 6.509,1.737 7.789,5.015 v 0 h -3.304 c -0.893,-1.784 -2.484,-2.627 -4.485,-2.627 v 0 c -3.328,0 -5.74,2.387 -5.74,6.172 v 0 c 0,3.787 2.412,6.148 5.74,6.148 v 0 c 2.001,0 3.592,-0.843 4.485,-2.627 v 0 h 3.304 c -1.28,3.279 -4.293,5.04 -7.789,5.04 v 0 c -4.726,0 -8.561,-3.545 -8.561,-8.561"
               style="fill:url(#linearGradient126);stroke:none"
               id="path128" /></g></g></g></g><g
       id="g130"><g
         id="g132"><g
           id="g138"><g
             id="g140"><path
               d="m 348.525,117.402 v -7.184 h -7.887 v 7.184 h -2.747 v -16.758 h 2.747 v 7.331 h 7.887 v -7.331 h 2.75 v 16.758 z"
               style="fill:url(#linearGradient152);stroke:none"
               id="path154" /></g></g></g></g><g
       id="g156"><g
         id="g158"><g
           id="g164"><g
             id="g166"><path
               d="m 293.816,299.169 -0.669,-10.679 c 0.132,0 0.261,-0.017 0.39,-0.034 v 0 l 0.673,10.754 c -0.131,-0.013 -0.263,-0.027 -0.394,-0.041 m 15.231,-0.434 c 0.528,-1.21 1.937,-1.765 3.149,-1.237 v 0 c 0.294,0.128 0.55,0.309 0.761,0.526 v 0 c -1.295,0.3 -2.606,0.557 -3.933,0.767 v 0 c 0.007,-0.018 0.015,-0.037 0.023,-0.056 m -19.926,-0.27 -1.539,-4.398 -21.586,-5.788 c -0.279,-0.206 -0.555,-0.415 -0.83,-0.627 v 0 l 22.479,6.027 3.72,-5.782 c 0.104,0.077 0.219,0.14 0.333,0.204 v 0 l -3.748,5.829 1.615,4.619 c -0.148,-0.027 -0.296,-0.055 -0.444,-0.084 m 6.221,-10.929 c 0.09,-0.094 0.179,-0.188 0.256,-0.296 v 0 l 13.108,10.832 c -0.07,0.111 -0.137,0.224 -0.194,0.346 v 0 z m 34.933,-1.498 c 0.077,0.104 0.154,0.21 0.246,0.304 v 0 l -12.969,10.41 c -0.34,0.11 -0.678,0.216 -1.022,0.32 v 0 z m 1.728,1.136 c 0.129,0.029 0.257,0.041 0.387,0.054 v 0 l -0.49,2.54 c -0.152,0.103 -0.302,0.203 -0.456,0.305 v 0 z m 1.512,-0.052 c 0.126,-0.036 0.25,-0.076 0.37,-0.128 v 0 l 0.374,1.095 c -0.11,0.082 -0.219,0.164 -0.329,0.245 v 0 z m -41.316,0.546 c -1.211,-0.527 -1.765,-1.937 -1.238,-3.148 v 0 c 0.528,-1.212 1.938,-1.766 3.149,-1.239 v 0 c 1.212,0.528 1.766,1.938 1.238,3.149 v 0 c -0.392,0.9 -1.272,1.437 -2.195,1.437 v 0 c -0.319,0 -0.643,-0.064 -0.954,-0.199 m 39.525,-1.237 c -1.212,-0.527 -1.766,-1.936 -1.239,-3.148 v 0 c 0.528,-1.211 1.938,-1.766 3.149,-1.238 v 0 c 1.212,0.527 1.765,1.937 1.238,3.149 v 0 c -0.392,0.899 -1.271,1.437 -2.194,1.437 v 0 c -0.319,0 -0.643,-0.064 -0.954,-0.2 m -69.28,-1.014 c -0.149,-0.13 -0.299,-0.262 -0.447,-0.394 v 0 l 28.16,0.232 c -0.009,0.131 -0.01,0.261 -0.002,0.391 v 0 z m 33.7,-0.227 33.519,-0.996 c -0.002,0.131 0.017,0.26 0.032,0.39 v 0 l -33.531,0.997 c 0.004,-0.132 -0.007,-0.261 -0.02,-0.391 m -0.318,-1.087 15.662,-6.794 c 0.047,0.122 0.11,0.237 0.172,0.352 v 0 l -15.673,6.798 c -0.044,-0.123 -0.101,-0.239 -0.161,-0.356 m 39.849,-0.082 3.526,-0.097 c -0.143,0.134 -0.287,0.269 -0.431,0.402 v 0 l -3.089,0.086 c 0.007,-0.132 0.003,-0.261 -0.006,-0.391 m -61.428,-9.461 c 0.073,-0.107 0.132,-0.224 0.192,-0.341 v 0 l 16.224,9.561 c -0.072,0.106 -0.132,0.223 -0.192,0.341 v 0 z m -4.38,-13.507 c 0.101,-0.083 0.195,-0.171 0.285,-0.267 v 0 l 21.089,22.373 c -0.101,0.083 -0.195,0.171 -0.285,0.267 v 0 z m 47.096,16.58 c 0.035,-0.065 0.078,-0.123 0.108,-0.192 v 0 c 0.023,-0.054 0.032,-0.11 0.053,-0.165 v 0 l 12.873,5.607 c -0.026,0.052 -0.061,0.096 -0.085,0.15 v 0 c -0.03,0.069 -0.042,0.14 -0.067,0.21 v 0 z m -32.596,-9.351 c 0.125,-0.039 0.246,-0.086 0.366,-0.141 v 0 l 7.257,14.558 c -0.121,0.05 -0.236,0.112 -0.349,0.177 v 0 z m 9.992,14.426 c -0.061,-0.026 -0.124,-0.038 -0.186,-0.059 v 0 l 8.919,-20.484 c 0.059,0.031 0.11,0.07 0.171,0.097 v 0 c 0.061,0.027 0.125,0.038 0.187,0.06 v 0 l -8.92,20.482 c -0.058,-0.03 -0.109,-0.069 -0.171,-0.096 m 12.239,-21.085 c 0.092,-0.091 0.176,-0.192 0.256,-0.296 v 0 l 23.699,20.779 c -0.092,0.091 -0.176,0.192 -0.256,0.296 v 0 z m -47.652,20.47 10.275,-7.597 c 0.069,0.11 0.155,0.209 0.24,0.309 v 0 l -10.24,7.571 c -0.092,-0.095 -0.184,-0.188 -0.275,-0.283 m 75.14,-0.507 4.816,-8.391 c 0.141,0.023 0.283,0.043 0.424,0.047 v 0 l -4.9,8.537 c -0.105,-0.075 -0.224,-0.132 -0.34,-0.193 m -12.848,-20.774 c 0.128,-0.035 0.254,-0.069 0.376,-0.121 v 0 l 9.977,20.735 c -0.121,0.048 -0.234,0.113 -0.35,0.175 v 0 z m 11.488,20.41 1.034,-19.134 c 0.13,0.016 0.26,0.034 0.389,0.033 v 0 l -1.034,19.144 c -0.129,-0.019 -0.259,-0.041 -0.389,-0.043 m 7.834,-8.219 c 0.12,-0.05 0.235,-0.111 0.347,-0.176 v 0 l 2.947,6.152 c -0.091,0.11 -0.182,0.218 -0.274,0.326 v 0 z m -27.211,5.427 c -1.211,-0.528 -1.765,-1.937 -1.238,-3.149 v 0 c 0.527,-1.211 1.937,-1.766 3.148,-1.238 v 0 c 1.212,0.528 1.766,1.937 1.239,3.149 v 0 c -0.392,0.9 -1.272,1.438 -2.195,1.438 v 0 c -0.319,0 -0.643,-0.064 -0.954,-0.2 m -42.548,-3.372 c -1.211,-0.527 -1.766,-1.937 -1.238,-3.148 v 0 c 0.527,-1.212 1.936,-1.766 3.148,-1.239 v 0 c 1.211,0.528 1.766,1.938 1.238,3.149 v 0 c -0.392,0.9 -1.271,1.437 -2.194,1.437 v 0 c -0.319,0 -0.643,-0.064 -0.954,-0.199 m 80.025,-19.323 c 0.13,0.026 0.26,0.032 0.39,0.042 v 0 l -3.09,17.379 c -0.178,0.279 -0.361,0.558 -0.544,0.834 v 0 z m -45.006,6.441 c 0.116,-0.058 0.231,-0.119 0.34,-0.192 v 0 l 6.807,11.565 c -0.117,0.057 -0.233,0.116 -0.342,0.189 v 0 z m 32.619,10.245 c -1.212,-0.527 -1.766,-1.937 -1.239,-3.148 v 0 c 0.529,-1.212 1.938,-1.766 3.149,-1.239 v 0 c 1.212,0.528 1.766,1.937 1.239,3.149 v 0 c -0.393,0.9 -1.272,1.437 -2.196,1.437 v 0 c -0.318,0 -0.642,-0.064 -0.953,-0.199 m -69.893,-10.73 c 0.127,-0.026 0.252,-0.066 0.376,-0.108 v 0 l 2.242,8.328 c -0.129,0.026 -0.253,0.066 -0.376,0.108 v 0 z m 73.174,6.637 7.728,-13.299 c 0.099,0.088 0.197,0.175 0.308,0.25 v 0 l -7.784,13.393 c -0.074,-0.121 -0.161,-0.234 -0.252,-0.344 m -59.208,-0.717 c -1.212,-0.528 -1.766,-1.938 -1.239,-3.15 v 0 c 0.528,-1.211 1.937,-1.764 3.149,-1.237 v 0 c 1.211,0.527 1.765,1.937 1.238,3.148 v 0 c -0.392,0.901 -1.271,1.438 -2.194,1.438 v 0 c -0.319,0 -0.643,-0.064 -0.954,-0.199 m 52.733,-5.701 c 0.121,-0.048 0.234,-0.114 0.349,-0.177 v 0 l 2.72,5.68 c -0.121,0.047 -0.234,0.111 -0.35,0.173 v 0 z m -88.542,1.051 c 0.39,-0.037 0.794,0.022 1.179,0.189 v 0 c 1.211,0.527 1.765,1.938 1.238,3.149 v 0 c -0.144,0.331 -0.354,0.613 -0.608,0.837 v 0 c -0.656,-1.362 -1.26,-2.755 -1.809,-4.175 m 39.555,1.319 15.26,-4.179 c 0.027,0.128 0.066,0.252 0.108,0.375 v 0 l -15.254,4.179 c -0.033,-0.127 -0.066,-0.253 -0.114,-0.375 m -36.513,-0.003 15.327,-4.692 c 0.037,0.126 0.078,0.25 0.131,0.369 v 0 l -15.351,4.698 c -0.03,-0.127 -0.062,-0.254 -0.107,-0.375 m 20.878,-4.164 c 0.03,-0.058 0.07,-0.109 0.096,-0.17 v 0 c 0.027,-0.062 0.038,-0.126 0.06,-0.188 v 0 l 9.982,4.347 c -0.018,0.038 -0.044,0.07 -0.061,0.11 v 0 c -0.036,0.084 -0.053,0.17 -0.082,0.255 v 0 z m 32.89,1.575 c -1.211,-0.527 -1.766,-1.936 -1.238,-3.148 v 0 c 0.527,-1.211 1.937,-1.765 3.148,-1.238 v 0 c 1.211,0.527 1.766,1.937 1.238,3.148 v 0 c -0.392,0.9 -1.271,1.438 -2.194,1.438 v 0 c -0.319,0 -0.643,-0.064 -0.954,-0.2 m 29.663,-0.387 c -1.211,-0.527 -1.765,-1.936 -1.237,-3.148 v 0 c 0.527,-1.211 1.937,-1.766 3.148,-1.238 v 0 c 1.211,0.527 1.766,1.937 1.239,3.148 v 0 c -0.393,0.901 -1.272,1.438 -2.196,1.438 v 0 c -0.319,0 -0.643,-0.064 -0.954,-0.2 m -66.178,-0.37 c -1.212,-0.528 -1.766,-1.937 -1.239,-3.148 v 0 c 0.528,-1.212 1.937,-1.766 3.148,-1.239 v 0 c 1.212,0.528 1.766,1.938 1.239,3.149 v 0 c -0.392,0.9 -1.271,1.438 -2.194,1.438 v 0 c -0.319,0 -0.643,-0.065 -0.954,-0.2 m 52.502,-0.825 c -1.211,-0.527 -1.766,-1.937 -1.238,-3.149 v 0 c 0.527,-1.21 1.936,-1.765 3.148,-1.237 v 0 c 1.211,0.527 1.766,1.936 1.238,3.148 v 0 c -0.392,0.9 -1.271,1.438 -2.194,1.438 v 0 c -0.319,0 -0.643,-0.064 -0.954,-0.2 m -48.554,-1.11 c 0.011,-0.132 0.015,-0.261 0.01,-0.392 v 0 l 30.519,0.634 c -0.011,0.131 -0.015,0.261 -0.01,0.39 v 0 z m 36.498,0.048 10.02,-0.857 c 0.012,0.129 0.027,0.258 0.056,0.385 v 0 l -10.043,0.861 c -0.003,-0.13 -0.015,-0.26 -0.033,-0.389 m 15.955,-0.481 c 0.029,-0.129 0.037,-0.258 0.048,-0.387 v 0 l 7.708,0.527 c -0.017,0.13 -0.039,0.259 -0.039,0.389 v 0 z m -78.095,0.322 c -0.039,-0.131 -0.077,-0.259 -0.116,-0.391 v 0 l 19.756,0.127 c -0.005,0.132 0.006,0.261 0.018,0.392 v 0 z m 91.55,-1.049 11.627,-4.481 c 0.025,0.129 0.066,0.253 0.108,0.377 v 0 l -11.594,4.469 c -0.039,-0.125 -0.086,-0.246 -0.141,-0.365 m 16.318,-2.598 c 0.107,-0.075 0.213,-0.153 0.31,-0.242 v 0 l 1.59,2.585 c -0.047,0.172 -0.095,0.342 -0.144,0.513 v 0 z m -65.699,-7.12 c 0.079,-0.102 0.148,-0.213 0.215,-0.326 v 0 l 14.413,9.849 c -0.08,0.102 -0.15,0.211 -0.218,0.325 v 0 z m -32.112,5.35 c 0.042,-0.079 0.094,-0.15 0.13,-0.234 v 0 c 0.017,-0.039 0.023,-0.08 0.039,-0.12 v 0 l 9.752,4.247 c -0.03,0.059 -0.069,0.11 -0.096,0.172 v 0 c -0.027,0.061 -0.038,0.125 -0.06,0.187 v 0 z m 51.197,3.864 26.599,-24.167 c 0.078,0.103 0.155,0.208 0.248,0.301 v 0 l -26.587,24.159 c -0.081,-0.103 -0.166,-0.202 -0.26,-0.293 m -36.288,-0.506 12.316,-8.881 c 0.072,0.108 0.155,0.209 0.241,0.308 v 0 l -12.32,8.883 c -0.069,-0.11 -0.154,-0.209 -0.237,-0.31 m 10.146,-32.089 c 0.115,-0.061 0.226,-0.128 0.333,-0.204 v 0 l 22.183,32.375 c -0.112,0.066 -0.216,0.145 -0.319,0.226 v 0 z m 25.257,31.992 c -0.061,-0.027 -0.125,-0.038 -0.187,-0.061 v 0 l 4.29,-9.853 c 0.06,0.031 0.111,0.069 0.172,0.096 v 0 c 0.061,0.027 0.125,0.038 0.187,0.06 v 0 l -4.291,9.854 c -0.058,-0.031 -0.11,-0.069 -0.171,-0.096 m -8.278,-19.595 c 0.127,-0.033 0.255,-0.062 0.375,-0.11 v 0 l 6.004,19.546 c -0.127,0.031 -0.254,0.062 -0.375,0.108 v 0 z m -52.693,-2.224 c 0.099,-0.085 0.191,-0.176 0.28,-0.274 v 0 l 21.099,21.753 c -0.103,0.082 -0.201,0.166 -0.293,0.26 v 0 z m 89.381,21.188 1.175,-21.757 c 0.131,0.014 0.26,0.022 0.391,0.017 v 0 l -1.176,21.767 c -0.131,-0.016 -0.261,-0.029 -0.39,-0.027 m -68.312,-11.716 c 0.13,-0.009 0.261,-0.018 0.389,-0.043 v 0 l 1.744,11.389 c -0.132,0.002 -0.262,0.014 -0.391,0.034 v 0 z m 55.895,10.768 12.205,-21.298 c 0.106,0.072 0.223,0.133 0.341,0.191 v 0 l -12.205,21.298 c -0.111,-0.067 -0.219,-0.138 -0.341,-0.191 m 28.818,-0.176 c -1.211,-0.528 -1.765,-1.937 -1.238,-3.149 v 0 c 0.527,-1.211 1.938,-1.765 3.149,-1.238 v 0 c 1.211,0.527 1.766,1.938 1.238,3.149 v 0 c -0.392,0.9 -1.271,1.437 -2.194,1.437 v 0 c -0.319,0 -0.643,-0.064 -0.955,-0.199 m -106.283,-0.343 5.666,-1.673 c 0.041,0.126 0.09,0.246 0.147,0.365 v 0 l -5.728,1.69 c -0.029,-0.128 -0.057,-0.254 -0.085,-0.382 m 7.569,-0.408 c -1.212,-0.527 -1.766,-1.938 -1.239,-3.148 v 0 c 0.528,-1.212 1.937,-1.766 3.148,-1.239 v 0 c 1.212,0.528 1.766,1.937 1.239,3.149 v 0 c -0.392,0.9 -1.272,1.437 -2.195,1.437 v 0 c -0.318,0 -0.642,-0.064 -0.953,-0.199 m 102.671,-1.256 c 0.008,-0.133 0.004,-0.264 -0.006,-0.395 v 0 l 1.728,0.256 c -0.024,0.129 -0.047,0.255 -0.072,0.384 v 0 z m -17.108,-19.196 c 0.105,-0.077 0.212,-0.151 0.306,-0.242 v 0 l 12.507,16.541 c -0.12,0.057 -0.24,0.112 -0.351,0.185 v 0 z m 15.311,16.243 c -0.077,-0.034 -0.157,-0.049 -0.236,-0.076 v 0 l 4.705,-8.097 c 0.002,0.181 0.002,0.363 0.002,0.544 v 0 c 0,0.077 0,0.154 0,0.231 v 0 l -4.341,7.471 c -0.045,-0.023 -0.083,-0.053 -0.13,-0.073 M 243.972,235.37 c 0.119,-0.053 0.237,-0.11 0.348,-0.177 v 0 l 7.335,14.02 c -0.121,0.046 -0.236,0.109 -0.351,0.171 v 0 z m 40.167,13.101 c -1.211,-0.528 -1.766,-1.938 -1.238,-3.149 v 0 c 0.528,-1.211 1.937,-1.766 3.149,-1.237 v 0 c 1.211,0.527 1.765,1.936 1.238,3.148 v 0 c -0.392,0.9 -1.272,1.438 -2.195,1.438 v 0 c -0.319,0 -0.643,-0.065 -0.954,-0.2 m 26.059,-2.133 c -1.212,-0.527 -1.766,-1.938 -1.239,-3.149 v 0 c 0.528,-1.21 1.938,-1.765 3.149,-1.238 v 0 c 1.212,0.528 1.766,1.937 1.239,3.149 v 0 c -0.393,0.9 -1.273,1.438 -2.196,1.438 v 0 c -0.318,0 -0.642,-0.065 -0.953,-0.2 m -45.564,-2.766 c -1.211,-0.527 -1.766,-1.936 -1.238,-3.148 v 0 c 0.527,-1.211 1.937,-1.766 3.148,-1.238 v 0 c 1.211,0.527 1.766,1.937 1.238,3.148 v 0 c -0.392,0.9 -1.271,1.438 -2.194,1.438 v 0 c -0.319,0 -0.643,-0.064 -0.954,-0.2 m 14.745,-18.501 c 0.13,-0.017 0.257,-0.044 0.384,-0.077 v 0 l 4.827,18.313 c -0.129,0.022 -0.253,0.061 -0.378,0.1 v 0 z m 34.339,17.494 19.04,-10.082 c 0.048,0.121 0.112,0.234 0.177,0.349 v 0 l -19.039,10.082 c -0.054,-0.119 -0.109,-0.237 -0.178,-0.349 m -14.686,-6.498 c 0.079,-0.101 0.149,-0.211 0.215,-0.325 v 0 l 9.542,6.544 c -0.08,0.102 -0.15,0.211 -0.218,0.324 v 0 z m 4.227,-18.022 c 0.12,-0.058 0.241,-0.115 0.352,-0.187 v 0 l 6.881,23.353 c -0.127,0.029 -0.253,0.062 -0.376,0.107 v 0 z m -57.769,15.833 c 0.009,-0.018 0.022,-0.034 0.031,-0.053 v 0 c 0.045,-0.103 0.068,-0.209 0.101,-0.315 v 0 l 17.236,6.608 c -0.054,0.117 -0.105,0.237 -0.144,0.363 v 0 z m 21.585,4.881 10.042,-14.326 c 0.101,0.081 0.208,0.155 0.321,0.223 v 0 l -10.04,14.322 c -0.106,-0.078 -0.212,-0.157 -0.323,-0.219 m 28.628,-2.344 c -1.211,-0.528 -1.766,-1.937 -1.238,-3.149 v 0 c 0.527,-1.211 1.937,-1.765 3.149,-1.238 v 0 c 1.211,0.527 1.765,1.937 1.237,3.148 v 0 c -0.392,0.901 -1.271,1.438 -2.194,1.438 v 0 c -0.319,0 -0.643,-0.064 -0.954,-0.199 m -51.609,-5.777 c 0.938,0.633 1.321,1.863 0.854,2.937 v 0 c -0.304,0.697 -0.9,1.177 -1.581,1.358 v 0 c 0.188,-1.449 0.432,-2.883 0.727,-4.295 m 94.428,1.169 c 0.02,-0.13 0.041,-0.26 0.044,-0.389 v 0 l 17.943,2.614 c 0.02,0.135 0.039,0.268 0.058,0.404 v 0 z m -3.925,1.739 c -1.212,-0.528 -1.766,-1.937 -1.239,-3.149 v 0 c 0.528,-1.211 1.937,-1.765 3.148,-1.238 v 0 c 1.212,0.527 1.766,1.938 1.239,3.149 v 0 c -0.392,0.9 -1.272,1.437 -2.195,1.437 v 0 c -0.319,0 -0.643,-0.064 -0.953,-0.199 m -53.235,-9.598 c 0.081,-0.103 0.152,-0.212 0.219,-0.325 v 0 l 12.724,8.728 c -0.081,0.102 -0.153,0.209 -0.221,0.322 v 0 z m -35.778,7.647 30.477,-8.856 c 0.029,0.128 0.063,0.253 0.108,0.376 v 0 l -30.478,8.856 c -0.028,-0.128 -0.063,-0.253 -0.107,-0.376 m 51.754,-0.309 3.687,-13.098 c 0.125,0.04 0.249,0.083 0.375,0.107 v 0 l -3.689,13.111 c -0.124,-0.047 -0.247,-0.09 -0.373,-0.12 m -52.445,-0.787 26.234,-22.838 c 0.101,0.086 0.208,0.165 0.322,0.238 v 0 L 245.143,230.8 c -0.079,-0.104 -0.158,-0.207 -0.25,-0.301 m 93.285,-0.606 15.417,-7.296 c 0.045,0.123 0.09,0.245 0.134,0.369 v 0 l -15.374,7.276 c -0.049,-0.122 -0.114,-0.234 -0.177,-0.349 m -33.243,-14.118 c 0.021,-0.139 0.043,-0.278 0.043,-0.416 v 0 l 28.081,14.301 c -0.073,0.107 -0.133,0.224 -0.192,0.341 v 0 z m -59.967,11.273 3.094,-7.108 c 0.059,0.031 0.11,0.069 0.172,0.096 v 0 c 0.062,0.027 0.125,0.038 0.187,0.06 v 0 l -4.056,9.316 c 0.184,-0.795 0.385,-1.582 0.603,-2.364 m 91.36,1.401 4.453,-13.143 c 0.123,0.047 0.247,0.089 0.372,0.119 v 0 l -4.452,13.143 c -0.123,-0.051 -0.248,-0.086 -0.373,-0.119 m -58.285,-4.166 c -1.211,-0.528 -1.766,-1.937 -1.237,-3.149 v 0 c 0.527,-1.211 1.937,-1.765 3.148,-1.238 v 0 c 1.211,0.527 1.766,1.937 1.238,3.148 v 0 c -0.392,0.901 -1.272,1.438 -2.195,1.438 v 0 c -0.319,0 -0.643,-0.064 -0.954,-0.199 m 3.675,-3.47 17.245,-5.673 c -0.009,0.137 -0.006,0.273 0.003,0.41 v 0 l -17.105,5.628 c -0.04,-0.125 -0.087,-0.246 -0.143,-0.365 m -0.883,-1.106 21.875,-24.839 c 0.095,0.088 0.188,0.179 0.296,0.256 v 0 l -21.875,24.84 c -0.091,-0.093 -0.192,-0.176 -0.296,-0.257 m -32.351,-0.244 c -0.238,-0.103 -0.45,-0.241 -0.634,-0.404 v 0 c 0.631,-1.409 1.318,-2.789 2.058,-4.135 v 0 c 0.164,0.033 0.326,0.083 0.485,0.153 v 0 c 1.212,0.527 1.766,1.936 1.239,3.148 v 0 c -0.392,0.9 -1.271,1.438 -2.195,1.438 v 0 c -0.318,0 -0.642,-0.064 -0.953,-0.2 M 274.72,207.86 c 0.117,-0.078 0.227,-0.165 0.333,-0.259 v 0 l 3.307,11.548 c -0.128,0.028 -0.253,0.064 -0.376,0.108 v 0 z m 26.287,9.669 c -1.211,-0.527 -1.765,-1.938 -1.238,-3.149 v 0 c 0.528,-1.211 1.937,-1.766 3.148,-1.237 v 0 c 1.212,0.527 1.766,1.936 1.239,3.148 v 0 c -0.392,0.9 -1.272,1.438 -2.195,1.438 v 0 c -0.319,0 -0.643,-0.065 -0.954,-0.2 m -48.955,-1.745 18.394,-8.926 c 0.066,0.114 0.142,0.22 0.223,0.326 v 0 l -18.44,8.948 c -0.049,-0.12 -0.113,-0.235 -0.177,-0.348 m 88.85,-1.093 c -1.211,-0.527 -1.766,-1.937 -1.238,-3.149 v 0 c 0.527,-1.21 1.936,-1.765 3.148,-1.237 v 0 c 1.211,0.527 1.766,1.937 1.238,3.148 v 0 c -0.392,0.9 -1.271,1.438 -2.194,1.438 v 0 c -0.319,0 -0.643,-0.064 -0.954,-0.2 m -36.305,-0.799 34.374,-2.225 c -0.038,0.132 -0.069,0.263 -0.088,0.396 v 0 l -34.103,2.209 c -0.049,-0.132 -0.116,-0.256 -0.183,-0.38 m 40.271,-1.308 c 0.005,-0.139 -0.01,-0.276 -0.025,-0.413 v 0 l 4.368,1.206 c 0.095,0.161 0.189,0.322 0.282,0.484 v 0 z m -40.905,0.511 16.683,-9.4 c 0.074,0.108 0.155,0.213 0.243,0.312 v 0 l -16.64,9.377 c -0.088,-0.104 -0.184,-0.197 -0.286,-0.289 m -1.562,-0.733 2.298,-16.689 c 0.135,0.002 0.266,-0.016 0.399,-0.032 v 0 l -2.315,16.805 c -0.127,-0.036 -0.253,-0.065 -0.382,-0.084 m 23.476,-9.154 c 0.003,-0.006 0.008,-0.011 0.01,-0.018 v 0 c 0.052,-0.118 0.08,-0.238 0.116,-0.358 v 0 l 13.911,7.373 c -0.105,0.088 -0.201,0.184 -0.294,0.288 v 0 z m 7.038,-7.506 c 0.256,0.181 0.509,0.363 0.762,0.548 v 0 l 7.575,13.298 c -0.132,0.027 -0.26,0.067 -0.387,0.111 v 0 z m -60.82,11.845 c -1.211,-0.527 -1.766,-1.937 -1.238,-3.148 v 0 c 0.527,-1.211 1.937,-1.766 3.148,-1.238 v 0 c 1.211,0.528 1.766,1.937 1.238,3.149 v 0 c -0.391,0.9 -1.27,1.437 -2.193,1.437 v 0 c -0.319,0 -0.644,-0.064 -0.955,-0.2 m 3.787,-3.213 25.955,-10.927 c 0.033,0.127 0.063,0.255 0.112,0.376 v 0 l -25.959,10.93 c -0.028,-0.129 -0.064,-0.255 -0.108,-0.379 m 46.284,-0.156 c -1.212,-0.527 -1.766,-1.936 -1.239,-3.148 v 0 c 0.528,-1.211 1.938,-1.766 3.149,-1.238 v 0 c 1.211,0.527 1.765,1.937 1.238,3.148 v 0 c -0.392,0.901 -1.271,1.438 -2.194,1.438 v 0 c -0.319,0 -0.643,-0.064 -0.954,-0.2 m -60.248,-4.36 c 0.105,-0.094 0.213,-0.19 0.319,-0.283 v 0 l 8.487,3.917 c -0.083,0.103 -0.16,0.21 -0.231,0.324 v 0 z m 11.613,2.568 -1.537,-9.79 c 0.122,-0.069 0.241,-0.136 0.364,-0.204 v 0 l 1.584,10.095 c -0.137,-0.042 -0.273,-0.079 -0.411,-0.101 m 34.087,-8.855 c 0.04,-0.131 0.074,-0.261 0.096,-0.392 v 0 l 13.088,6.936 c -0.083,0.102 -0.161,0.207 -0.232,0.321 v 0 z m 16.708,5.688 c -0.069,-0.03 -0.141,-0.044 -0.211,-0.068 v 0 l 1.653,-7.752 c 0.119,0.06 0.242,0.123 0.36,0.184 v 0 l -1.646,7.723 c -0.054,-0.027 -0.1,-0.063 -0.156,-0.087 m -20.536,-4.368 c -1.212,-0.527 -1.765,-1.937 -1.238,-3.148 v 0 c 0.527,-1.212 1.937,-1.766 3.148,-1.239 v 0 c 1.212,0.528 1.766,1.937 1.239,3.149 v 0 c -0.392,0.9 -1.272,1.437 -2.196,1.437 v 0 c -0.318,0 -0.642,-0.064 -0.953,-0.199 m -24.401,-5.749 c 0.26,-0.101 0.52,-0.199 0.782,-0.297 v 0 l 21.791,2.7 c -0.052,0.125 -0.088,0.252 -0.122,0.379 v 0 z m 28.03,2.19 10.361,-3.201 c 0.214,0.07 0.424,0.141 0.637,0.213 v 0 l -10.837,3.348 c -0.044,-0.125 -0.1,-0.242 -0.161,-0.36 m -8.647,-6.009 c 0.174,-0.004 0.349,-0.007 0.524,-0.009 v 0 l 4.278,4.612 c -0.126,0.052 -0.246,0.114 -0.363,0.183 v 0 z"
               style="fill:url(#linearGradient178);stroke:none"
               id="path180" /></g></g></g></g><g
       id="g182"><g
         id="g184"
         clip-path="url(#clipPath188)"><g
           id="g190"
           transform="translate(357.1153,242.3852)"><path
             d="m 0,0 c 0,-31.544 -25.571,-57.115 -57.115,-57.115 -31.544,0 -57.116,25.571 -57.116,57.115 0,31.544 25.572,57.115 57.116,57.115 C -25.571,57.115 0,31.544 0,0 Z"
             style="fill:none;stroke:url(#linearGradient202);stroke-width:1.415;stroke-linecap:butt;stroke-linejoin:miter;stroke-miterlimit:10;stroke-dasharray:none;stroke-opacity:1"
             id="path204" /></g></g></g></g></svg>
